<?xml version="1.0" encoding="utf-8"?>
<!-- Generator: Adobe Illustrator 23.1.0, SVG Export Plug-In . SVG Version: 6.00 Build 0)  -->
<svg version="1.1" id="Calque_1" xmlns="http://www.w3.org/2000/svg" xmlns:xlink="http://www.w3.org/1999/xlink" x="0px" y="0px"
	 viewBox="0 0 222.5 507.6" style="enable-background:new 0 0 222.5 507.6;" xml:space="preserve">
<style type="text/css">
	.st0{fill:#F2D64B;}
</style>
<title>cv_serpentFichier 1</title>
<g>
	<g id="Calque_1-2">
		<path class="st0" d="M214,288.5c-12.1-18.8-31.7-32.6-51-43.1c-20-10.9-41.5-18.7-62.9-26.4s-43.5-14.6-63.3-25.8
			c-9.3-5.2-18.5-12-23.6-21.6C7.8,161.6,9.1,150,13.9,140c11.9-24.4,39-36.3,60.3-50.9c20.5-14,39.6-33.2,41.6-59.2
			c0-0.1,0-0.3,0-0.4c1.2-8.2,1.6-16.4,1.1-24.6c-0.4-6.4-10.4-6.4-10,0c0.7,11.1-0.3,22.2-2.8,33.1c-0.1,0.6-0.2,1.2-0.1,1.8
			C98.4,58.1,82,72,66.4,82.3c-19.4,12.9-41.2,23.8-55.2,43c-13.3,18.1-16,41.4-1.1,59.4c13.8,16.6,36.1,24.7,55.6,32.3
			c42.2,16.4,88.8,27.9,123.6,58.5c16.8,14.8,31.2,36.6,18.8,58.8c-11.2,20.1-33.7,29.4-52.8,40.1c-11,6.2-21.8,13.3-30,23
			c-7.4,9-12.8,19.6-15.7,30.9c-6.4,24.2-3.9,49.9-0.9,74.5c0.8,6.3,10.8,6.4,10,0c-2.7-21.7-5.2-44.4-0.8-66
			c2.2-10.6,6-20.9,12.5-29.7c6.7-9.2,16-15.9,25.7-21.6c19.2-11.3,40.5-19.9,54.9-37.8S226.4,307.7,214,288.5z"/>
	</g>
</g>
</svg>
